<svg width="38" height="38" viewBox="0 0 38 38" fill="none" xmlns="http://www.w3.org/2000/svg">
<path d="M35.4076 28.9251C34.0716 27.579 30.8358 25.6146 29.2658 24.8229C27.2213 23.7932 27.0531 23.7091 25.4461 24.9029C24.3742 25.6996 23.6616 26.4113 22.4072 26.1438C21.1527 25.8762 18.4268 24.3678 16.0399 21.9886C13.653 19.6095 12.0569 16.8046 11.7885 15.5545C11.5202 14.3043 12.2437 13.6002 13.0329 12.5258C14.1452 11.0115 14.061 10.7591 13.1103 8.7148C12.3691 7.12476 10.3473 3.91946 8.99612 2.59022C7.55069 1.16255 7.55069 1.41494 6.61932 1.80193C5.86108 2.12094 5.13364 2.50871 4.44613 2.96039C3.09998 3.85468 2.35286 4.59753 1.83039 5.71392C1.30791 6.83031 1.07318 9.44756 3.77137 14.3489C6.46956 19.2503 8.36259 21.7565 12.2807 25.6634C16.1989 29.5703 19.2117 31.671 23.6162 34.1411C29.0647 37.1924 31.1546 36.5976 32.2745 36.076C33.3943 35.5544 34.1406 34.8141 35.0366 33.468C35.4895 32.7817 35.8781 32.0551 36.1976 31.2975C36.5855 30.3696 36.8379 30.3696 35.4076 28.9251Z" stroke="#FF6D6D" stroke-width="3" stroke-miterlimit="10"/>
</svg>
