<svg width="48" height="36" viewBox="0 0 48 36" fill="none" xmlns="http://www.w3.org/2000/svg">
<path d="M38.1293 35.8307C35.335 35.8307 32.9463 34.8392 30.9632 32.8561C29.0702 30.7829 28.1238 28.259 28.1238 25.2843C28.1238 19.6956 29.7463 14.6929 32.9913 10.276C36.3265 5.76897 40.1575 2.38871 44.4842 0.135209L45.0251 0C45.7462 0 46.1067 0.360559 46.1067 1.08168C46.1067 1.3521 45.9715 1.62252 45.7011 1.89295C43.5377 3.78589 41.8701 5.7239 40.6983 7.70699C39.5265 9.59994 38.9406 11.3126 38.9406 12.845C38.9406 14.4675 39.7969 15.8196 41.5096 16.9013C43.5828 18.0731 45.1603 19.29 46.242 20.552C47.4138 21.8139 47.9997 23.5717 47.9997 25.8252C47.9997 28.6195 47.0081 31.0082 45.0251 32.9913C43.1321 34.8843 40.8335 35.8307 38.1293 35.8307ZM9.87036 35.8307C7.16615 35.8307 4.8225 34.8392 2.83942 32.8561C0.946473 30.7829 0 28.259 0 25.2843C0 19.6956 1.6676 14.6929 5.00278 10.276C8.33797 5.76897 12.0788 2.43378 16.2252 0.270417C16.4055 0.180278 16.6309 0.135209 16.9013 0.135209C17.5323 0.135209 17.8478 0.49577 17.8478 1.21689C17.8478 1.48731 17.7576 1.71266 17.5773 1.89295C15.414 3.87603 13.7464 5.85911 12.5746 7.8422C11.4027 9.73515 10.8168 11.4027 10.8168 12.845C10.8168 14.9182 11.6732 16.2703 13.3858 16.9013C15.3689 17.8928 16.9013 19.0647 17.983 20.4168C19.1548 21.7689 19.7407 23.5717 19.7407 25.8252C19.7407 28.6195 18.7942 31.0082 16.9013 32.9913C15.0084 34.8843 12.6647 35.8307 9.87036 35.8307Z" fill="#2E4049"/>
</svg>
