<svg width="42" height="45" viewBox="0 0 42 45" fill="none" xmlns="http://www.w3.org/2000/svg">
<path d="M21 0C16.8466 0 12.7865 1.30868 9.33303 3.76055C5.8796 6.21242 3.18798 9.69735 1.59854 13.7747C0.00909864 17.852 -0.406771 22.3385 0.403519 26.667C1.21381 30.9954 3.21386 34.9713 6.15077 38.092C9.08767 41.2126 12.8295 43.3378 16.9031 44.1988C20.9767 45.0598 25.1991 44.6179 29.0364 42.929C32.8736 41.2401 36.1534 38.3801 38.4609 34.7106C40.7684 31.0412 42 26.727 42 22.3138C41.9939 16.3978 39.7794 10.726 35.8425 6.54273C31.9056 2.35949 26.5677 0.00649687 21 0ZM21 42.8424C17.1789 42.8424 13.4435 41.6385 10.2664 39.3827C7.08923 37.127 4.61294 33.9209 3.15066 30.1697C1.68837 26.4186 1.30577 22.291 2.05124 18.3088C2.7967 14.3267 4.63675 10.6688 7.3387 7.79781C10.0407 4.92682 13.4831 2.97166 17.2309 2.17955C20.9786 1.38745 24.8632 1.79399 28.3934 3.34775C31.9237 4.90152 34.9411 7.53273 37.064 10.9087C39.1869 14.2846 40.32 18.2536 40.32 22.3138C40.3144 27.7565 38.2772 32.9746 34.6552 36.8232C31.0332 40.6718 26.1223 42.8365 21 42.8424ZM21 8.92551C18.508 8.92551 16.0719 9.71072 13.9998 11.1818C11.9278 12.653 10.3128 14.7439 9.35913 17.1903C8.40546 19.6367 8.15594 22.3286 8.64211 24.9257C9.12829 27.5228 10.3283 29.9083 12.0905 31.7807C13.8526 33.6531 16.0977 34.9282 18.5419 35.4448C20.986 35.9614 23.5195 35.6962 25.8218 34.6829C28.1242 33.6696 30.092 31.9536 31.4765 29.7519C32.861 27.5502 33.6 24.9617 33.6 22.3138C33.5961 18.7642 32.2674 15.3613 29.9053 12.8514C27.5431 10.3415 24.3405 8.92964 21 8.92551ZM21 33.9169C18.8402 33.9169 16.729 33.2364 14.9332 31.9614C13.1374 30.6865 11.7378 28.8743 10.9112 26.7541C10.0847 24.6339 9.86848 22.3009 10.2898 20.0501C10.7112 17.7993 11.7512 15.7318 13.2784 14.1091C14.8056 12.4864 16.7513 11.3813 18.8696 10.9336C20.9879 10.4859 23.1835 10.7156 25.1789 11.5938C27.1743 12.4721 28.8797 13.9593 30.0797 15.8674C31.2796 17.7755 31.92 20.0189 31.92 22.3138C31.9167 25.39 30.7651 28.3393 28.7179 30.5145C26.6708 32.6898 23.8951 33.9134 21 33.9169Z" fill="black"/>
</svg>
