<svg width="14" height="14" viewBox="0 0 14 14" fill="none" xmlns="http://www.w3.org/2000/svg">
<path d="M13.563 10.9703C13.0286 10.4318 11.7342 9.64607 11.1062 9.3294C10.2884 8.91749 10.2211 8.88384 9.57831 9.36137C9.14955 9.68006 8.8645 9.96476 8.3627 9.85774C7.86091 9.75073 6.7705 9.14734 5.81572 8.19565C4.86094 7.24396 4.22251 6.12199 4.11515 5.62191C4.00779 5.12184 4.29722 4.84017 4.6129 4.41043C5.05782 3.80468 5.02416 3.70373 4.64386 2.88597C4.34737 2.24994 3.53864 0.967786 2.99815 0.436078C2.41996 -0.135003 2.41996 -0.0340461 2.04741 0.120755C1.7441 0.248361 1.45312 0.403473 1.17811 0.584149C0.639631 0.941874 0.340778 1.23902 0.131782 1.68559C-0.0772131 2.13216 -0.171109 3.17909 0.908196 5.13967C1.9875 7.10026 2.74473 8.10277 4.31203 9.66559C5.87933 11.2284 7.0845 12.0687 8.84632 13.0567C11.0258 14.2773 11.8618 14.0394 12.3097 13.8307C12.7577 13.6221 13.0562 13.326 13.4146 12.7875C13.5958 12.513 13.7512 12.2223 13.879 11.9193C14.0342 11.5481 14.1352 11.5481 13.563 10.9703Z" fill="white"/>
</svg>
