<svg width="124" height="19" viewBox="0 0 124 19" fill="none" xmlns="http://www.w3.org/2000/svg">
<path d="M12.6409 1.90406C13.6262 1.90689 14.5702 2.28504 15.2669 2.9559C15.9635 3.62676 16.3562 4.53584 16.3592 5.48457V12.6448C16.3562 13.5936 15.9635 14.5026 15.2669 15.1735C14.5702 15.8444 13.6262 16.2225 12.6409 16.2253H5.20528C4.22005 16.2225 3.27601 15.8444 2.57934 15.1735C1.88268 14.5026 1.48999 13.5936 1.48705 12.6448V5.48457C1.48999 4.53584 1.88268 3.62676 2.57934 2.9559C3.27601 2.28504 4.22005 1.90689 5.20528 1.90406H12.6409ZM12.6409 0.472086H5.20528C2.34231 0.472086 0 2.72765 0 5.48457V12.6448C0 15.4018 2.34231 17.6573 5.20528 17.6573H12.6409C15.5039 17.6573 17.8462 15.4018 17.8462 12.6448V5.48457C17.8462 2.72765 15.5039 0.472086 12.6409 0.472086Z" fill="#2E4049"/>
<path d="M13.7563 5.4849C13.5357 5.4849 13.3201 5.42191 13.1366 5.30389C12.9532 5.18587 12.8102 5.01812 12.7258 4.82186C12.6414 4.62559 12.6193 4.40963 12.6624 4.20128C12.7054 3.99293 12.8116 3.80155 12.9676 3.65134C13.1236 3.50112 13.3223 3.39883 13.5387 3.35738C13.7551 3.31594 13.9793 3.33721 14.1831 3.41851C14.387 3.4998 14.5612 3.63747 14.6837 3.8141C14.8063 3.99073 14.8717 4.19839 14.8717 4.41082C14.872 4.55196 14.8434 4.69176 14.7874 4.82221C14.7315 4.95266 14.6493 5.07119 14.5457 5.17099C14.4421 5.27079 14.319 5.34989 14.1835 5.40376C14.0481 5.45763 13.9029 5.4852 13.7563 5.4849ZM8.92309 6.2007C9.51139 6.2007 10.0865 6.36869 10.5756 6.68342C11.0648 6.99816 11.446 7.44551 11.6712 7.9689C11.8963 8.49229 11.9552 9.06821 11.8404 9.62383C11.7257 10.1795 11.4424 10.6898 11.0264 11.0904C10.6104 11.491 10.0804 11.7638 9.50339 11.8743C8.92639 11.9848 8.32832 11.9281 7.7848 11.7113C7.24128 11.4945 6.77673 11.1274 6.44989 10.6564C6.12305 10.1853 5.94859 9.63154 5.94859 9.06503C5.94944 8.30561 6.26309 7.57753 6.82074 7.04054C7.37838 6.50355 8.13447 6.20151 8.92309 6.2007ZM8.92309 4.76872C8.04068 4.76872 7.17809 5.0207 6.44439 5.49278C5.71069 5.96486 5.13884 6.63586 4.80116 7.4209C4.46347 8.20595 4.37512 9.0698 4.54727 9.9032C4.71942 10.7366 5.14434 11.5021 5.7683 12.103C6.39226 12.7038 7.18723 13.113 8.05269 13.2788C8.91814 13.4446 9.81521 13.3595 10.6305 13.0343C11.4457 12.7091 12.1425 12.1585 12.6327 11.4519C13.123 10.7454 13.3846 9.91476 13.3846 9.06503C13.3846 7.92558 12.9146 6.8328 12.0779 6.02708C11.2412 5.22137 10.1064 4.76872 8.92309 4.76872Z" fill="#2E4049"/>
<path fill-rule="evenodd" clip-rule="evenodd" d="M52.7114 9.11627C52.7114 4.37116 48.716 0.523658 43.7883 0.523658C38.8607 0.523658 34.8652 4.37116 34.8652 9.11627C34.8652 13.4049 38.1277 16.9597 42.3941 17.6049V11.6008H40.1279V9.11627H42.3941V7.22321C42.3941 5.07007 43.7266 3.87977 45.7646 3.87977C46.7409 3.87977 47.7623 4.04778 47.7623 4.04778V6.16256H46.6366C45.5287 6.16256 45.1822 6.82466 45.1822 7.50516V9.11627H47.6567L47.2616 11.6008H45.1826V17.6057C49.4489 16.9609 52.7114 13.4061 52.7114 9.11627Z" fill="#2E4049"/>
<path d="M88.8514 3.22889C88.1341 3.54055 87.3753 3.74587 86.5987 3.83837C87.4148 3.3605 88.0285 2.60131 88.3248 1.7032C87.5532 2.15437 86.7105 2.47094 85.8327 2.63933C85.463 2.25195 85.0185 1.94377 84.5261 1.73353C84.0336 1.5233 83.5036 1.4154 82.9681 1.41639C80.8003 1.41639 79.0459 3.14524 79.0459 5.27643C79.0444 5.57287 79.0784 5.86842 79.1471 6.15679C77.5926 6.08391 76.0705 5.68736 74.678 4.9925C73.2855 4.29764 72.0535 3.31978 71.0606 2.12147C70.7122 2.70869 70.528 3.37869 70.5272 4.06145C70.5272 5.39992 71.2255 6.58302 72.2799 7.27616C71.6552 7.26133 71.0433 7.09598 70.4961 6.79415V6.84195C70.4961 8.71421 71.8505 10.2718 73.6431 10.6263C73.306 10.7162 72.9586 10.7617 72.6098 10.7617C72.3622 10.7622 72.1152 10.7382 71.8724 10.69C72.3707 12.2237 73.8211 13.3391 75.5392 13.371C74.1432 14.4469 72.4292 15.0284 70.6666 15.0241C70.3537 15.0237 70.0412 15.005 69.7305 14.9683C71.5235 16.1133 73.6078 16.7189 75.7352 16.7131C82.9598 16.7131 86.9066 10.8295 86.9066 5.72656C86.9066 5.55926 86.9023 5.39195 86.8943 5.22862C87.6604 4.6837 88.3231 4.00652 88.8514 3.22889Z" fill="#2E4049"/>
<path d="M114.937 0C109.93 0 105.871 4.05799 105.871 9.06272C105.871 12.7728 108.105 15.9609 111.298 17.3648C111.274 16.7337 111.294 15.973 111.456 15.2852C111.63 14.5489 112.622 10.3453 112.622 10.3453C112.622 10.3453 112.331 9.7667 112.331 8.91302C112.331 7.5698 113.108 6.56642 114.079 6.56642C114.905 6.56642 115.302 7.18544 115.302 7.92583C115.302 8.75523 114.771 9.99326 114.5 11.1423C114.274 12.1052 114.982 12.886 115.933 12.886C117.649 12.886 118.807 10.6811 118.807 8.06744C118.807 6.08092 117.467 4.59609 115.034 4.59609C112.286 4.59609 110.57 6.64734 110.57 8.93729C110.57 9.72624 110.805 10.2846 111.169 10.7134C111.335 10.9117 111.359 10.9926 111.298 11.2192C111.254 11.385 111.157 11.7856 111.112 11.9474C111.052 12.178 110.865 12.2589 110.659 12.174C109.392 11.6561 108.801 10.2724 108.801 8.71073C108.801 6.13756 110.975 3.05058 115.281 3.05058C118.742 3.05058 121.021 5.55496 121.021 8.24141C121.021 11.7977 119.042 14.4518 116.127 14.4518C115.148 14.4518 114.229 13.9218 113.913 13.323C113.913 13.323 113.387 15.4107 113.274 15.8152C113.083 16.5152 112.707 17.2111 112.363 17.7573C113.198 18.0034 114.063 18.1287 114.933 18.1295C119.94 18.1295 124 14.0715 124 9.06676C124 4.06204 119.944 0 114.937 0Z" fill="#2E4049"/>
</svg>
